<svg xmlns="http://www.w3.org/2000/svg" viewBox="0 0 269.16 37.5"><defs><style>.cls-1{fill:#f44336;}.cls-2{fill:#009688;}</style></defs><title>Ativo 2</title><g id="Camada_2" data-name="Camada 2"><g id="Camada_1-2" data-name="Camada 1"><path class="cls-1" d="M27.5,21.7V37.1H19.7V22.9c0-4.35-2-6.35-5.45-6.35-3.75,0-6.45,2.3-6.45,7.25V37.1H0V0H7.8V13a11.82,11.82,0,0,1,8.55-3.2C22.7,9.8,27.5,13.5,27.5,21.7Z"/><path class="cls-1" d="M25.64,23.65c0-8.1,6.25-13.85,14.81-13.85S55.2,15.55,55.2,23.65,49,37.5,40.45,37.5,25.64,31.75,25.64,23.65Zm21.65,0c0-4.65-2.94-7.45-6.84-7.45s-6.91,2.8-6.91,7.45,3,7.45,6.91,7.45S47.29,28.3,47.29,23.65Z"/><path class="cls-1" d="M80.59,10.2V37.1h-7.4V33.9a10.88,10.88,0,0,1-8.35,3.6c-6.75,0-11.5-3.8-11.5-12.1V10.2h7.8V24.25c0,4.5,2,6.5,5.45,6.5s6.2-2.3,6.2-7.25V10.2Z"/><path class="cls-1" d="M78.75,34.6l2.6-5.6a18.4,18.4,0,0,0,9.35,2.6c3.6,0,5-1,5-2.45,0-4.4-16.25.1-16.25-10.65,0-5.1,4.6-8.7,12.45-8.7,3.7,0,7.8.85,10.35,2.35L99.6,17.7a15.45,15.45,0,0,0-7.75-2c-3.5,0-5,1.1-5,2.5,0,4.6,16.25.15,16.25,10.75,0,5-4.65,8.55-12.7,8.55C85.85,37.5,81.25,36.25,78.75,34.6Z"/><path class="cls-1" d="M127.58,25.85H107.23c.75,3.35,3.6,5.4,7.7,5.4a9.12,9.12,0,0,0,6.75-2.6l4.15,4.5c-2.5,2.85-6.25,4.35-11.1,4.35-9.3,0-15.35-5.85-15.35-13.85S105.53,9.8,113.73,9.8c7.9,0,14,5.3,14,14C127.73,24.35,127.63,25.2,127.58,25.85ZM107.13,21.3h13.25a6.72,6.72,0,0,0-13.25,0Z"/><path class="cls-2" d="M180.53,21.7V37.1h-7.8V22.9c0-4.35-1.95-6.35-5.1-6.35-3.5,0-5.95,2.25-5.95,7.05V37.1h-7.8V22.9c0-4.35-1.85-6.35-5.1-6.35-3.45,0-5.9,2.25-5.9,7.05V37.1h-7.8V10.2h7.45v3.1A10.89,10.89,0,0,1,151,9.8c3.75,0,7,1.45,8.85,4.4a12.1,12.1,0,0,1,9.7-4.4C175.93,9.8,180.53,13.5,180.53,21.7Z"/><path class="cls-2" d="M204.37,21.75V37.1h-7.3V33.75c-1.45,2.45-4.25,3.75-8.2,3.75-6.3,0-10.05-3.5-10.05-8.15s3.35-8,11.55-8h6.2c0-3.35-2-5.3-6.2-5.3a12.93,12.93,0,0,0-7.75,2.5l-2.8-5.45a20.68,20.68,0,0,1,11.6-3.25C199.62,9.8,204.37,13.6,204.37,21.75Zm-7.8,6.85V25.85h-5.35c-3.65,0-4.8,1.35-4.8,3.15s1.65,3.25,4.4,3.25A5.75,5.75,0,0,0,196.57,28.6Z"/><path class="cls-2" d="M221.64,35.8a11.15,11.15,0,0,1-6.35,1.7c-6.35,0-10-3.25-10-9.65v-11h-4.15v-6h4.15V4.25H213V10.8h6.7v6H213v11c0,2.3,1.25,3.55,3.35,3.55a5.26,5.26,0,0,0,3.15-1Z"/><path class="cls-2" d="M216.83,23.65c0-8.1,6.25-13.85,15-13.85,5.65,0,10.1,2.45,12,6.85l-6,3.25a6.71,6.71,0,0,0-6.05-3.7c-3.95,0-7.05,2.75-7.05,7.45s3.1,7.45,7.05,7.45a6.62,6.62,0,0,0,6.05-3.7l6,3.3c-1.95,4.3-6.4,6.8-12,6.8C223.08,37.5,216.83,31.75,216.83,23.65Z"/><path class="cls-2" d="M269.16,21.7V37.1h-7.8V22.9c0-4.35-2-6.35-5.45-6.35-3.75,0-6.45,2.3-6.45,7.25V37.1h-7.8V0h7.8V13A11.82,11.82,0,0,1,258,9.8C264.36,9.8,269.16,13.5,269.16,21.7Z"/></g></g></svg>