<svg xmlns="http://www.w3.org/2000/svg" viewBox="0 0 269.16 167.84"><defs><style>.cls-1{fill:#f44336;}.cls-2{fill:#009688;}.cls-3{fill:#d32f2f;}.cls-4{fill:#fff;}</style></defs><title>Ativo 1</title><g id="Camada_2" data-name="Camada 2"><g id="Camada_1-2" data-name="Camada 1"><path class="cls-1" d="M27.5,152v15.4H19.7v-14.2c0-4.35-2-6.35-5.45-6.35-3.75,0-6.45,2.3-6.45,7.25v13.3H0v-37.1H7.8v13a11.82,11.82,0,0,1,8.55-3.2C22.7,140.14,27.5,143.84,27.5,152Z"/><path class="cls-1" d="M25.64,154c0-8.1,6.25-13.85,14.81-13.85S55.2,145.89,55.2,154,49,167.84,40.45,167.84,25.64,162.09,25.64,154Zm21.65,0c0-4.65-2.94-7.45-6.84-7.45s-6.91,2.8-6.91,7.45,3,7.45,6.91,7.45S47.29,158.64,47.29,154Z"/><path class="cls-1" d="M80.59,140.54v26.9h-7.4v-3.2a10.88,10.88,0,0,1-8.35,3.6c-6.75,0-11.5-3.8-11.5-12.1v-15.2h7.8v14.05c0,4.5,2,6.5,5.45,6.5s6.2-2.3,6.2-7.25v-13.3Z"/><path class="cls-1" d="M78.75,164.94l2.6-5.6a18.4,18.4,0,0,0,9.35,2.6c3.6,0,5-.95,5-2.45,0-4.4-16.25.1-16.25-10.65,0-5.1,4.6-8.7,12.45-8.7,3.7,0,7.8.85,10.35,2.35L99.6,148a15.45,15.45,0,0,0-7.75-2c-3.5,0-5,1.1-5,2.5,0,4.6,16.25.15,16.25,10.75,0,5-4.65,8.55-12.7,8.55C85.85,167.84,81.25,166.59,78.75,164.94Z"/><path class="cls-1" d="M127.58,156.19H107.23c.75,3.35,3.6,5.4,7.7,5.4a9.12,9.12,0,0,0,6.75-2.6l4.15,4.5c-2.5,2.85-6.25,4.35-11.1,4.35-9.3,0-15.35-5.85-15.35-13.85s6.15-13.85,14.35-13.85c7.9,0,14,5.3,14,14C127.73,154.69,127.63,155.54,127.58,156.19Zm-20.45-4.55h13.25a6.72,6.72,0,0,0-13.25,0Z"/><path class="cls-2" d="M180.53,152v15.4h-7.8v-14.2c0-4.35-1.95-6.35-5.1-6.35-3.5,0-5.95,2.25-5.95,7.05v13.5h-7.8v-14.2c0-4.35-1.85-6.35-5.1-6.35-3.45,0-5.9,2.25-5.9,7.05v13.5h-7.8v-26.9h7.45v3.1a10.89,10.89,0,0,1,8.45-3.5c3.75,0,7,1.45,8.85,4.4a12.1,12.1,0,0,1,9.7-4.4C175.93,140.14,180.53,143.84,180.53,152Z"/><path class="cls-2" d="M204.37,152.09v15.35h-7.3v-3.35c-1.45,2.45-4.25,3.75-8.2,3.75-6.3,0-10.05-3.5-10.05-8.15s3.35-8.05,11.55-8.05h6.2c0-3.35-2-5.3-6.2-5.3a12.93,12.93,0,0,0-7.75,2.5l-2.8-5.45a20.68,20.68,0,0,1,11.6-3.25C199.62,140.14,204.37,143.94,204.37,152.09Zm-7.8,6.85v-2.75h-5.35c-3.65,0-4.8,1.35-4.8,3.15s1.65,3.25,4.4,3.25A5.75,5.75,0,0,0,196.57,158.94Z"/><path class="cls-2" d="M221.64,166.14a11.15,11.15,0,0,1-6.35,1.7c-6.35,0-10-3.25-10-9.65V147.14h-4.15v-6h4.15v-6.55H213v6.55h6.7v6H213v11c0,2.3,1.25,3.55,3.35,3.55a5.26,5.26,0,0,0,3.15-1Z"/><path class="cls-2" d="M216.83,154c0-8.1,6.25-13.85,15-13.85,5.65,0,10.1,2.45,12,6.85l-6,3.25a6.71,6.71,0,0,0-6.05-3.7c-3.95,0-7.05,2.75-7.05,7.45s3.1,7.45,7.05,7.45a6.62,6.62,0,0,0,6.05-3.7l6,3.3c-1.95,4.3-6.4,6.8-12,6.8C223.08,167.84,216.83,162.09,216.83,154Z"/><path class="cls-2" d="M269.16,152v15.4h-7.8v-14.2c0-4.35-2-6.35-5.45-6.35-3.75,0-6.45,2.3-6.45,7.25v13.3h-7.8v-37.1h7.8v13a11.82,11.82,0,0,1,8.55-3.2C264.36,140.14,269.16,143.84,269.16,152Z"/><path class="cls-1" d="M70.58,55.14a17.63,17.63,0,0,1,2.56-11.43l28.7-41a6.38,6.38,0,0,1,8.87-1.56l41,28.71A17.58,17.58,0,0,1,158,39.72l8.82,50a6.33,6.33,0,0,1-5.12,7.32l-75,13.22a6.32,6.32,0,0,1-7.31-5.12Z"/><path class="cls-3" d="M166.83,89.74l-8.82-50a17.58,17.58,0,0,0-6.31-9.86l-24.26-17-10,7a17.61,17.61,0,0,0-6.31,9.86l-8.82,50a6.34,6.34,0,0,0,5.12,7.32l55.23,9.73A6.31,6.31,0,0,0,166.83,89.74Z"/><path class="cls-2" d="M111.15,39.72a17.61,17.61,0,0,1,6.31-9.86l41-28.71a6.36,6.36,0,0,1,8.86,1.56l28.71,41a17.55,17.55,0,0,1,2.55,11.43l-8.82,50a6.33,6.33,0,0,1-7.31,5.12l-75-13.22a6.34,6.34,0,0,1-5.12-7.32Z"/><path class="cls-1" d="M133.69,59.47H71.34l8.06,45.69a6.32,6.32,0,0,0,7.31,5.12l47-8.28Z"/><path class="cls-4" d="M172.69,59.47a19,19,0,0,0-33.06-12.75,7.68,7.68,0,0,0-.82.69l-4.65,4.65-4.65-4.65c-.2-.19-.41-.37-.62-.54a19,19,0,1,0-26.8,26.79,5.41,5.41,0,0,0,.55.62l26.17,26.17a8.16,8.16,0,0,0,10.7,0l26.17-26.17c.12-.12.23-.25.34-.37A19,19,0,0,0,172.69,59.47Z"/></g></g></svg>